<?xml version="1.0" encoding="utf-8"?>
<!-- Generator: Adobe Illustrator 24.1.1, SVG Export Plug-In . SVG Version: 6.00 Build 0)  -->
<svg version="1.1" id="artwork" xmlns="http://www.w3.org/2000/svg" xmlns:xlink="http://www.w3.org/1999/xlink" x="0px" y="0px"
	 viewBox="0 0 155 60" style="enable-background:new 0 0 155 60;" xml:space="preserve">
<style type="text/css">
	.st0{fill:#FFFFFF;fill-opacity:0;}
	.st1{fill:#A6A6A6;}
	.st2{fill:#FFFFFF;stroke:#FFFFFF;stroke-width:0.2;stroke-miterlimit:10;}
	.st3{fill:#FFFFFF;}
	.st4{fill:url(#SVGID_1_);}
	.st5{fill:url(#SVGID_2_);}
	.st6{fill:url(#SVGID_3_);}
	.st7{fill:url(#SVGID_4_);}
	.st8{opacity:0.2;enable-background:new    ;}
	.st9{opacity:0.12;enable-background:new    ;}
	.st10{opacity:0.25;fill:#FFFFFF;enable-background:new    ;}
</style>
<rect x="-25.3" y="-9.8" class="st0" width="205.6" height="79.6"/>
<path d="M-16.3,0h187.7c4.1,0,7.6,3.3,7.6,7.6v45.1c0,4.1-3.3,7.6-7.6,7.6H-16.3c-4.1,0-7.6-3.3-7.6-7.6V7.4
	C-23.8,3.3-20.5,0-16.3,0z"/>
<path class="st1" d="M171.3,1.2c3.4,0,6.4,2.8,6.4,6.4v45.1c0,3.4-2.8,6.4-6.4,6.4H-16.3c-3.6-0.3-6.4-3.1-6.4-6.5l0,0V7.4
	c0-3.4,2.8-6.4,6.4-6.4l0,0h187.6 M171.3,0H-16.3c-4.1,0-7.6,3.3-7.6,7.6v45.1c0,4.1,3.3,7.6,7.6,7.6h187.7c4.1,0,7.6-3.3,7.6-7.6
	V7.4C178.8,3.3,175.5,0,171.3,0z"/>
<path class="st2" d="M47.4,15.4c0,1.1-0.4,2.3-1.1,3.1c-0.9,0.9-2.1,1.3-3.3,1.3s-2.4-0.4-3.3-1.3c-1.9-1.9-1.9-4.8,0-6.6
	c1.3-1.3,3.4-1.7,5.2-0.9c0.5,0.3,1.1,0.5,1.5,1.1l-0.8,0.8c-0.7-0.7-1.5-1.2-2.5-1.1c-2,0-3.6,1.6-3.6,3.6s1.6,3.6,3.6,3.6
	c0.9,0,1.9-0.4,2.5-1.1c0.4-0.5,0.7-1.2,0.8-1.9H43v-1.1h4.4C47.4,14.9,47.4,15.1,47.4,15.4z"/>
<path class="st2" d="M54.3,11.6h-4.1v2.9h3.7v1.1h-3.7v2.9h4.1v1.1H49v-9h5.3V11.6z"/>
<path class="st2" d="M59.2,19.5H58v-8h-2.5v-1.1h6.2v1.1h-2.5C59.2,11.6,59.2,19.5,59.2,19.5z"/>
<path class="st2" d="M66.1,19.5v-9h1.2v9H66.1z"/>
<path class="st2" d="M72.5,19.5h-1.2v-8h-2.5v-1.1H75v1.1h-2.5C72.5,11.6,72.5,19.5,72.5,19.5z"/>
<path class="st2" d="M86.7,18.3c-1.9,1.9-4.8,1.9-6.6,0l0,0c-1.7-1.9-1.7-4.8,0-6.6c0.8-0.9,2.1-1.5,3.3-1.3c1.2,0,2.4,0.5,3.3,1.3
	c0.9,0.9,1.3,2.1,1.3,3.3S87.6,17.4,86.7,18.3z M80.9,17.5c1.3,1.3,3.4,1.3,4.9,0l0,0c1.3-1.5,1.3-3.7,0-5.2c-1.3-1.3-3.4-1.3-4.9,0
	l0,0C79.6,13.8,79.6,16.1,80.9,17.5z"/>
<path class="st2" d="M89.6,19.5v-9H91l4.4,7l0,0v-1.7v-5.3h1.2v9h-1.2l-4.6-7.3l0,0v1.7v5.6C90.8,19.5,89.6,19.5,89.6,19.5z"/>
<path class="st3" d="M78.4,32.7c-3.6,0-6.4,2.9-6.4,6.4c0,3.6,2.9,6.4,6.4,6.4c3.6,0,6.4-2.9,6.4-6.4c0-3.4-2.8-6.4-6.2-6.4
	C78.6,32.7,78.6,32.7,78.4,32.7z M78.4,42.9c-2.1,0.1-4-1.5-4.1-3.6s1.5-4,3.6-4.1c2.1-0.1,4,1.5,4.1,3.6c0,0.1,0,0.1,0,0.3
	C82.1,41,80.6,42.7,78.4,42.9C78.6,42.9,78.4,42.9,78.4,42.9z M64.5,32.7c-3.6,0-6.4,2.9-6.4,6.4c0,3.6,2.9,6.4,6.4,6.4
	c3.6,0,6.4-2.9,6.4-6.4c0-3.4-2.8-6.4-6.2-6.4H64.5z M64.5,42.9c-2.1,0.1-4-1.5-4.1-3.6s1.5-4,3.6-4.1s4,1.5,4.1,3.6
	c0,0.1,0,0.1,0,0.3C68.2,41,66.6,42.7,64.5,42.9L64.5,42.9z M47.8,34.6v2.7h6.5c-0.1,1.3-0.7,2.5-1.5,3.4c-1.3,1.3-3.2,2.1-5,2
	c-4,0-7.2-3.2-7.2-7.2s3.2-7.2,7.2-7.2c1.9,0,3.6,0.7,4.9,2l1.9-1.9c-1.9-1.7-4.2-2.8-6.8-2.8c-5.4-0.3-10.1,4.1-10.3,9.6
	s4.1,10.1,9.6,10.3c0.3,0,0.5,0,0.8,0c2.7,0.1,5.2-0.9,6.9-2.8c1.6-1.7,2.4-4,2.4-6.4c0-0.5,0-1.1-0.1-1.7h-9.2V34.6z M115.8,36.6
	c-0.8-2.4-2.9-4-5.4-4.1c-3.3,0-6,2.7-6,6c0,0.1,0,0.3,0,0.4c0,3.4,2.8,6.4,6.2,6.4c2.1,0,4.1-1.1,5.3-2.8l-2.1-1.5
	c-0.7,1.1-1.9,1.7-3.2,1.7s-2.5-0.7-3.1-2l8.5-3.6L115.8,36.6z M107.2,38.9c-0.1-2,1.3-3.6,3.3-3.7c0,0,0,0,0.1,0
	c0.9,0,1.9,0.5,2.4,1.3L107.2,38.9z M100.2,45h2.8V26.3h-2.8V45z M95.7,34.1L95.7,34.1c-0.9-0.9-2.1-1.5-3.4-1.5
	c-3.6,0.1-6.2,3.2-6.1,6.6c0.1,3.3,2.8,6,6.1,6.1c1.3,0,2.5-0.5,3.3-1.5h0.1v0.9c0,2.4-1.3,3.7-3.4,3.7c-1.5,0-2.7-0.9-3.2-2.3
	l-2.5,0.9c0.9,2.3,3.2,3.8,5.7,3.8c3.3,0,6-2,6-6.6V33.1h-2.7v1.1H95.7z M92.4,42.9c-2.1-0.1-3.7-2-3.6-4.1c0.1-2,1.7-3.4,3.6-3.6
	c2,0.1,3.6,1.7,3.4,3.7V39c0.1,2-1.3,3.7-3.3,3.8C92.5,42.9,92.5,42.9,92.4,42.9z M129,26.3h-6.8V45h2.8v-7h4c3.2,0.3,6-2.3,6.2-5.4
	c0.3-3.2-2.3-6-5.4-6.2C129.6,26.3,129.2,26.3,129,26.3z M129,35.3h-4v-6.4h4c1.7,0,3.2,1.5,3.2,3.2C132.3,33.8,130.8,35.3,129,35.3
	L129,35.3L129,35.3z M146.3,32.5c-2.1-0.1-4.1,1.1-5,2.9l2.5,1.1c0.5-0.9,1.5-1.5,2.5-1.3c1.5-0.1,2.8,0.9,3.1,2.4l0,0v0.1
	c-0.9-0.5-1.9-0.7-2.9-0.7c-2.7,0-5.4,1.5-5.4,4.2c0.1,2.4,2.1,4.2,4.5,4.1h0.1c1.5,0.1,2.8-0.7,3.6-1.9h0.1V45h2.7v-7.2
	C152.1,34.5,149.7,32.7,146.3,32.5L146.3,32.5z M146,42.9c-0.9,0-2.3-0.5-2.3-1.6c0-1.5,1.6-2,3.1-2c0.9,0,1.7,0.1,2.5,0.7
	C149.1,41.5,147.8,42.9,146,42.9L146,42.9z M162,33.1l-3.2,8.1h-0.1l-3.3-8.1h-3.1l5,11.4l-2.9,6.4h2.9l7.7-17.6H162V33.1z
	 M136.7,45h2.8V26.3h-2.8V45z"/>
<linearGradient id="SVGID_1_" gradientUnits="userSpaceOnUse" x1="8.8854" y1="208.9481" x2="-16.3097" y2="183.7531" gradientTransform="matrix(1 0 0 -1 0 222)">
	<stop  offset="0" style="stop-color:#00A0FF"/>
	<stop  offset="1.000000e-02" style="stop-color:#00A1FF"/>
	<stop  offset="0.26" style="stop-color:#00BEFF"/>
	<stop  offset="0.51" style="stop-color:#00D2FF"/>
	<stop  offset="0.76" style="stop-color:#00DFFF"/>
	<stop  offset="1" style="stop-color:#00E3FF"/>
</linearGradient>
<path class="st4" d="M-8.2,11.3c-0.5,0.5-0.8,1.3-0.7,2.1v33.2c0,0.8,0.3,1.5,0.7,2.1l0.1,0.1l18.6-18.6v-0.4L-8.2,11.3L-8.2,11.3z"
	/>
<linearGradient id="SVGID_2_" gradientUnits="userSpaceOnUse" x1="26.9446" y1="192" x2="-9.3764" y2="192" gradientTransform="matrix(1 0 0 -1 0 222)">
	<stop  offset="0" style="stop-color:#FFE000"/>
	<stop  offset="0.41" style="stop-color:#FFBD00"/>
	<stop  offset="0.78" style="stop-color:#FFA500"/>
	<stop  offset="1" style="stop-color:#FF9C00"/>
</linearGradient>
<path class="st5" d="M16.7,36.4l-6.2-6.1v-0.4l6.1-6.2l0.1,0.1l7.4,4.1c2.1,1.2,2.1,3.2,0,4.4l-7.3,4.1H16.7z"/>
<linearGradient id="SVGID_3_" gradientUnits="userSpaceOnUse" x1="13.4271" y1="188.5508" x2="-20.7469" y2="154.3917" gradientTransform="matrix(1 0 0 -1 0 222)">
	<stop  offset="0" style="stop-color:#FF3A44"/>
	<stop  offset="1" style="stop-color:#C31162"/>
</linearGradient>
<path class="st6" d="M16.9,36.4L10.5,30L-8.2,48.7c0.9,0.8,2.1,0.8,3.1,0.1L16.9,36.4"/>
<linearGradient id="SVGID_4_" gradientUnits="userSpaceOnUse" x1="-12.8864" y1="221.7632" x2="2.3687" y2="206.5079" gradientTransform="matrix(1 0 0 -1 0 222)">
	<stop  offset="0" style="stop-color:#32A071"/>
	<stop  offset="7.000000e-02" style="stop-color:#2DA771"/>
	<stop  offset="0.48" style="stop-color:#15CF74"/>
	<stop  offset="0.8" style="stop-color:#06E775"/>
	<stop  offset="1" style="stop-color:#00F076"/>
</linearGradient>
<path class="st7" d="M16.9,23.6L-5,11.2c-0.9-0.7-2.3-0.7-3.1,0.1L10.5,30L16.9,23.6z"/>
<path class="st8" d="M16.7,36.2L-5,48.6c-0.9,0.7-2.1,0.7-3.1,0l0,0l-0.1,0.1l0,0l0.1,0.1l0,0c0.9,0.7,2.1,0.7,3.1,0l21.9-12.5
	L16.7,36.2z"/>
<path class="st9" d="M-8.2,48.4c-0.5-0.5-0.7-1.3-0.7-2.1v0.3c0,0.8,0.3,1.5,0.7,2.1l0.1-0.1L-8.2,48.4z"/>
<path class="st9" d="M24.2,32l-7.6,4.2l0.1,0.1l7.4-4.1c0.9-0.4,1.5-1.2,1.6-2.1l0,0C25.6,30.9,25,31.6,24.2,32z"/>
<path class="st10" d="M-5,11.4L24.3,28c0.8,0.4,1.5,1.1,1.6,2l0,0c-0.1-0.9-0.7-1.7-1.6-2.1L-5,11.2c-2.1-1.2-3.8-0.3-3.8,2.3v0.3
	C-8.9,11.2-7.1,10.2-5,11.4z"/>
</svg>
