<svg xmlns="http://www.w3.org/2000/svg" width="19.002" height="13.969" viewBox="0 0 19.002 13.969">
  <g id="Briefcase" transform="translate(0.002)">
    <g id="Rectangle_18" data-name="Rectangle 18" transform="translate(0 1.969)" fill="none" stroke="#707070" stroke-width="0.5">
      <rect width="19" height="12" rx="2" stroke="none"/>
      <rect x="0.25" y="0.25" width="18.5" height="11.5" rx="1.75" fill="none"/>
    </g>
    <path id="Path_64" data-name="Path 64" d="M0,0,18.7-.123" transform="translate(0 4.692)" fill="none" stroke="#707070" stroke-width="0.5"/>
    <g id="Path_40" data-name="Path 40" transform="translate(5.5 4.969)" fill="none">
      <path d="M0-.5H7V4.219H0Z" stroke="none"/>
      <path d="M 0.5 -5.006790161132813e-06 L 0.5 3.718744993209839 L 6.5 3.718744993209839 L 6.5 -5.006790161132813e-06 L 0.5 -5.006790161132813e-06 M 0 -0.500004768371582 L 7 -0.500004768371582 L 7 4.218745231628418 L 0 4.218745231628418 L 0 -0.500004768371582 Z" stroke="none" fill="#707070"/>
    </g>
    <g id="Path_41" data-name="Path 41" transform="translate(5.5 -1.031)" fill="none">
      <path d="M1,1.031H6a1,1,0,0,1,1,1V3.5H0V2.031A1,1,0,0,1,1,1.031Z" stroke="none"/>
      <path d="M 1 1.531244993209839 C 0.7242999076843262 1.531244993209839 0.5 1.755544900894165 0.5 2.031244993209839 L 0.5 2.999994993209839 L 6.5 2.999994993209839 L 6.5 2.031244993209839 C 6.5 1.755544900894165 6.275700092315674 1.531244993209839 6 1.531244993209839 L 1 1.531244993209839 M 1 1.031244993209839 L 6 1.031244993209839 C 6.552279949188232 1.031244993209839 7 1.478965044021606 7 2.031244993209839 L 7 3.499994993209839 L 0 3.499994993209839 L 0 2.031244993209839 C 0 1.478965044021606 0.4477200508117676 1.031244993209839 1 1.031244993209839 Z" stroke="none" fill="#707070"/>
    </g>
  </g>
</svg>
